<svg width="531" height="79" viewBox="0 0 531 79" fill="none" xmlns="http://www.w3.org/2000/svg">
<g id="n2">
<path id="n" d="M340.57 28.7578V62H337.484V19.7344H340.531L340.57 28.7578ZM339.984 37.625L338.461 35.8281C338.695 33.5885 339.242 31.4531 340.102 29.4219C340.987 27.3906 342.146 25.5938 343.578 24.0312C345.036 22.4688 346.729 21.2318 348.656 20.3203C350.609 19.4089 352.758 18.9531 355.102 18.9531C357.211 18.9531 359.099 19.2526 360.766 19.8516C362.432 20.4245 363.839 21.3359 364.984 22.5859C366.156 23.8359 367.042 25.4505 367.641 27.4297C368.24 29.3828 368.539 31.7656 368.539 34.5781V62H365.453V34.5781C365.453 31.2448 364.997 28.6667 364.086 26.8438C363.174 24.9948 361.898 23.6927 360.258 22.9375C358.643 22.1823 356.755 21.8047 354.594 21.8047C352.094 21.8047 349.932 22.3646 348.109 23.4844C346.312 24.5781 344.828 25.9714 343.656 27.6641C342.484 29.3307 341.586 31.0625 340.961 32.8594C340.362 34.6562 340.036 36.2448 339.984 37.625Z" fill="white"/>
</g>
<g id="n1">
<path id="n_2" d="M125.57 28.7578V62H122.484V19.7344H125.531L125.57 28.7578ZM124.984 37.625L123.461 35.8281C123.695 33.5885 124.242 31.4531 125.102 29.4219C125.987 27.3906 127.146 25.5938 128.578 24.0312C130.036 22.4688 131.729 21.2318 133.656 20.3203C135.609 19.4089 137.758 18.9531 140.102 18.9531C142.211 18.9531 144.099 19.2526 145.766 19.8516C147.432 20.4245 148.839 21.3359 149.984 22.5859C151.156 23.8359 152.042 25.4505 152.641 27.4297C153.24 29.3828 153.539 31.7656 153.539 34.5781V62H150.453V34.5781C150.453 31.2448 149.997 28.6667 149.086 26.8438C148.174 24.9948 146.898 23.6927 145.258 22.9375C143.643 22.1823 141.755 21.8047 139.594 21.8047C137.094 21.8047 134.932 22.3646 133.109 23.4844C131.312 24.5781 129.828 25.9714 128.656 27.6641C127.484 29.3307 126.586 31.0625 125.961 32.8594C125.362 34.6562 125.036 36.2448 124.984 37.625Z" fill="white"/>
</g>
<rect id="Rectangle 1" y="65" width="531" height="1" fill="white"/>
<g id="M">
<path id="M_2" d="M13.5547 5.125H16.875L39.375 57.4688L61.875 5.125H65.1953L40.5859 62H38.125L13.5547 5.125ZM12.5781 5.125H15.5469L15.7422 35.5547V62H12.5781V5.125ZM63.2812 5.125H66.25V62H63.0859V35.5547L63.2812 5.125Z" fill="white"/>
</g>
<g id="&#195;&#165;">
<path id="&#195;&#165;_2" d="M106.695 54.2266V32.3906C106.695 30.1771 106.227 28.276 105.289 26.6875C104.352 25.099 102.984 23.888 101.188 23.0547C99.3906 22.1953 97.1901 21.7656 94.5859 21.7656C92.1641 21.7656 89.9896 22.1953 88.0625 23.0547C86.1615 23.888 84.6641 25.0339 83.5703 26.4922C82.4766 27.9505 81.9297 29.5781 81.9297 31.375L78.8047 31.3359C78.8047 29.7214 79.1823 28.1719 79.9375 26.6875C80.7188 25.2031 81.8125 23.888 83.2188 22.7422C84.651 21.5703 86.3307 20.6458 88.2578 19.9688C90.2109 19.2917 92.3464 18.9531 94.6641 18.9531C97.6328 18.9531 100.25 19.4609 102.516 20.4766C104.807 21.4661 106.591 22.9635 107.867 24.9688C109.143 26.974 109.781 29.474 109.781 32.4688V53.3281C109.781 54.8385 109.885 56.362 110.094 57.8984C110.302 59.4349 110.589 60.6719 110.953 61.6094V62H107.555C107.268 61.0104 107.047 59.7995 106.891 58.3672C106.76 56.9349 106.695 55.5547 106.695 54.2266ZM107.711 38.0156L107.789 40.7109H97.4766C94.8724 40.7109 92.5417 40.9583 90.4844 41.4531C88.4271 41.9479 86.6823 42.651 85.25 43.5625C83.8177 44.474 82.724 45.5547 81.9688 46.8047C81.2135 48.0547 80.8359 49.4609 80.8359 51.0234C80.8359 52.638 81.2656 54.1224 82.125 55.4766C82.9844 56.8307 84.1953 57.9115 85.7578 58.7188C87.3203 59.5 89.1302 59.8906 91.1875 59.8906C94 59.8906 96.487 59.4089 98.6484 58.4453C100.836 57.4557 102.672 56.1276 104.156 54.4609C105.641 52.7682 106.721 50.8151 107.398 48.6016L108.766 50.8672C108.323 52.2474 107.633 53.6406 106.695 55.0469C105.758 56.4531 104.547 57.7422 103.062 58.9141C101.578 60.0599 99.8333 60.9974 97.8281 61.7266C95.8229 62.4297 93.5443 62.7812 90.9922 62.7812C88.3099 62.7812 85.9661 62.2865 83.9609 61.2969C81.9818 60.2812 80.4453 58.901 79.3516 57.1562C78.2578 55.3854 77.7109 53.3672 77.7109 51.1016C77.7109 49.1484 78.1536 47.3646 79.0391 45.75C79.9245 44.1354 81.2005 42.7552 82.8672 41.6094C84.5599 40.4375 86.6042 39.5521 89 38.9531C91.4219 38.3281 94.1432 38.0156 97.1641 38.0156H107.711ZM89.625 7.78125C89.625 6.45312 89.9375 5.25521 90.5625 4.1875C91.2135 3.11979 92.0599 2.27344 93.1016 1.64844C94.1432 1.02344 95.3281 0.710938 96.6562 0.710938C98.6094 0.710938 100.263 1.38802 101.617 2.74219C102.971 4.09635 103.648 5.77604 103.648 7.78125C103.648 9.08333 103.336 10.2682 102.711 11.3359C102.086 12.3776 101.24 13.1979 100.172 13.7969C99.1302 14.3698 97.9583 14.6562 96.6562 14.6562C94.6771 14.6562 93.0104 14.0052 91.6562 12.7031C90.3021 11.401 89.625 9.76042 89.625 7.78125ZM92.0859 7.78125C92.0859 9.08333 92.5156 10.1641 93.375 11.0234C94.2344 11.8828 95.3281 12.3125 96.6562 12.3125C97.9844 12.3125 99.0781 11.8958 99.9375 11.0625C100.797 10.2031 101.227 9.10938 101.227 7.78125C101.227 6.42708 100.797 5.30729 99.9375 4.42188C99.0781 3.53646 97.9844 3.09375 96.6562 3.09375C95.3281 3.09375 94.2344 3.53646 93.375 4.42188C92.5156 5.30729 92.0859 6.42708 92.0859 7.78125Z" fill="white"/>
</g>
<g id="s">
<path id="s_2" d="M192.266 51.4922C192.266 50.2422 191.927 49.0052 191.25 47.7812C190.599 46.5573 189.388 45.4115 187.617 44.3438C185.872 43.276 183.333 42.3776 180 41.6484C177.63 41.1276 175.534 40.5547 173.711 39.9297C171.914 39.3047 170.404 38.5495 169.18 37.6641C167.956 36.7526 167.031 35.6719 166.406 34.4219C165.807 33.1719 165.508 31.6745 165.508 29.9297C165.508 28.4193 165.833 27 166.484 25.6719C167.135 24.3438 168.086 23.1849 169.336 22.1953C170.612 21.1797 172.135 20.3854 173.906 19.8125C175.677 19.2396 177.682 18.9531 179.922 18.9531C183.125 18.9531 185.859 19.487 188.125 20.5547C190.417 21.5964 192.174 23.0417 193.398 24.8906C194.622 26.7135 195.234 28.8359 195.234 31.2578H192.109C192.109 29.6172 191.641 28.0807 190.703 26.6484C189.766 25.2161 188.385 24.0573 186.562 23.1719C184.766 22.2604 182.552 21.8047 179.922 21.8047C177.266 21.8047 175.104 22.2083 173.438 23.0156C171.771 23.8229 170.547 24.8516 169.766 26.1016C169.01 27.3255 168.633 28.5755 168.633 29.8516C168.633 30.8672 168.776 31.8177 169.062 32.7031C169.375 33.5625 169.961 34.3568 170.82 35.0859C171.68 35.8151 172.917 36.5182 174.531 37.1953C176.146 37.8464 178.242 38.4583 180.82 39.0312C184.206 39.7865 186.966 40.7109 189.102 41.8047C191.237 42.8724 192.812 44.1875 193.828 45.75C194.844 47.2865 195.352 49.1745 195.352 51.4141C195.352 53.0807 195 54.6172 194.297 56.0234C193.594 57.4036 192.578 58.6016 191.25 59.6172C189.948 60.6328 188.359 61.4141 186.484 61.9609C184.609 62.5078 182.526 62.7812 180.234 62.7812C176.771 62.7812 173.828 62.2344 171.406 61.1406C169.01 60.0208 167.188 58.5495 165.938 56.7266C164.714 54.9036 164.102 52.9375 164.102 50.8281H167.227C167.409 53.1458 168.164 54.9688 169.492 56.2969C170.846 57.625 172.487 58.5625 174.414 59.1094C176.367 59.6562 178.307 59.9297 180.234 59.9297C182.865 59.9297 185.065 59.526 186.836 58.7188C188.633 57.8854 189.987 56.8307 190.898 55.5547C191.81 54.2526 192.266 52.8984 192.266 51.4922Z" fill="white"/>
</g>
<g id="W">
<path id="W_2" d="M241.641 48.2891L254.688 5.125H257.578L254.492 15.75L240.664 62H238.008L241.641 48.2891ZM225.742 5.125L236.992 48.1328L240.352 62H237.422L222.383 5.125H225.742ZM275.43 48.1328L286.562 5.125H289.883L274.883 62H271.953L275.43 48.1328ZM257.773 5.125L270.664 48.2891L274.297 62H271.641L258.008 15.75L254.883 5.125H257.773Z" fill="white"/>
</g>
<g id="e">
<path id="e_2" d="M313.148 62.7812C310.492 62.7812 308.031 62.2734 305.766 61.2578C303.5 60.2161 301.521 58.7708 299.828 56.9219C298.135 55.0469 296.807 52.8333 295.844 50.2812C294.906 47.7292 294.438 44.9297 294.438 41.8828V40.1641C294.438 37.013 294.906 34.1484 295.844 31.5703C296.807 28.9661 298.109 26.7266 299.75 24.8516C301.391 22.9505 303.279 21.4922 305.414 20.4766C307.576 19.4609 309.88 18.9531 312.328 18.9531C314.802 18.9531 317.042 19.4089 319.047 20.3203C321.052 21.2318 322.771 22.5078 324.203 24.1484C325.635 25.7891 326.729 27.7422 327.484 30.0078C328.24 32.2734 328.617 34.7734 328.617 37.5078V40.125H296.391V37.2734H325.531V36.7656C325.505 34.1094 324.958 31.6484 323.891 29.3828C322.849 27.1172 321.352 25.2943 319.398 23.9141C317.445 22.5078 315.089 21.8047 312.328 21.8047C310.115 21.8047 308.096 22.2734 306.273 23.2109C304.477 24.1484 302.927 25.4505 301.625 27.1172C300.323 28.7578 299.32 30.6979 298.617 32.9375C297.914 35.151 297.562 37.5599 297.562 40.1641V41.8828C297.562 44.3828 297.953 46.7266 298.734 48.9141C299.516 51.1016 300.609 53.0286 302.016 54.6953C303.422 56.3359 305.076 57.625 306.977 58.5625C308.878 59.5 310.961 59.9688 313.227 59.9688C315.674 59.9688 317.914 59.5391 319.945 58.6797C321.977 57.8203 323.826 56.3099 325.492 54.1484L327.523 55.6719C326.586 57.026 325.453 58.237 324.125 59.3047C322.797 60.3724 321.221 61.2188 319.398 61.8438C317.602 62.4688 315.518 62.7812 313.148 62.7812Z" fill="white"/>
</g>
<g id="n3">
<path id="n_3" d="M384.57 28.7578V62H381.484V19.7344H384.531L384.57 28.7578ZM383.984 37.625L382.461 35.8281C382.695 33.5885 383.242 31.4531 384.102 29.4219C384.987 27.3906 386.146 25.5938 387.578 24.0312C389.036 22.4688 390.729 21.2318 392.656 20.3203C394.609 19.4089 396.758 18.9531 399.102 18.9531C401.211 18.9531 403.099 19.2526 404.766 19.8516C406.432 20.4245 407.839 21.3359 408.984 22.5859C410.156 23.8359 411.042 25.4505 411.641 27.4297C412.24 29.3828 412.539 31.7656 412.539 34.5781V62H409.453V34.5781C409.453 31.2448 408.997 28.6667 408.086 26.8438C407.174 24.9948 405.898 23.6927 404.258 22.9375C402.643 22.1823 400.755 21.8047 398.594 21.8047C396.094 21.8047 393.932 22.3646 392.109 23.4844C390.312 24.5781 388.828 25.9714 387.656 27.6641C386.484 29.3307 385.586 31.0625 384.961 32.8594C384.362 34.6562 384.036 36.2448 383.984 37.625Z" fill="white"/>
</g>
<g id="i">
<path id="i_2" d="M430.117 19.7344V62H426.992V19.7344H430.117ZM426.016 6.92188C426.016 6.21875 426.25 5.61979 426.719 5.125C427.214 4.60417 427.839 4.34375 428.594 4.34375C429.323 4.34375 429.935 4.60417 430.43 5.125C430.924 5.61979 431.172 6.21875 431.172 6.92188C431.172 7.625 430.924 8.22396 430.43 8.71875C429.935 9.1875 429.323 9.42188 428.594 9.42188C427.839 9.42188 427.214 9.1875 426.719 8.71875C426.25 8.22396 426.016 7.625 426.016 6.92188Z" fill="white"/>
</g>
<g id="n4">
<path id="n_4" d="M445.57 28.7578V62H442.484V19.7344H445.531L445.57 28.7578ZM444.984 37.625L443.461 35.8281C443.695 33.5885 444.242 31.4531 445.102 29.4219C445.987 27.3906 447.146 25.5938 448.578 24.0312C450.036 22.4688 451.729 21.2318 453.656 20.3203C455.609 19.4089 457.758 18.9531 460.102 18.9531C462.211 18.9531 464.099 19.2526 465.766 19.8516C467.432 20.4245 468.839 21.3359 469.984 22.5859C471.156 23.8359 472.042 25.4505 472.641 27.4297C473.24 29.3828 473.539 31.7656 473.539 34.5781V62H470.453V34.5781C470.453 31.2448 469.997 28.6667 469.086 26.8438C468.174 24.9948 466.898 23.6927 465.258 22.9375C463.643 22.1823 461.755 21.8047 459.594 21.8047C457.094 21.8047 454.932 22.3646 453.109 23.4844C451.312 24.5781 449.828 25.9714 448.656 27.6641C447.484 29.3307 446.586 31.0625 445.961 32.8594C445.362 34.6562 445.036 36.2448 444.984 37.625Z" fill="white"/>
</g>
<g id="g">
<g id="g_2">
<path id="g_3" d="M514.57 19.7344H517.578V61.3359C517.578 64.9557 516.914 68.0807 515.586 70.7109C514.258 73.3672 512.37 75.3984 509.922 76.8047C507.5 78.237 504.596 78.9531 501.211 78.9531C499.284 78.9531 497.435 78.6667 495.664 78.0938C493.919 77.5208 492.305 76.6875 490.82 75.5938C489.362 74.526 488.099 73.263 487.031 71.8047L488.945 69.8516C490.612 71.9089 492.422 73.4714 494.375 74.5391C496.354 75.6068 498.581 76.1406 501.055 76.1406C503.971 76.1406 506.419 75.5417 508.398 74.3438C510.378 73.1458 511.875 71.4401 512.891 69.2266C513.906 67.0391 514.414 64.4349 514.414 61.4141V29.0312L514.57 19.7344ZM484.531 41.2578V40.4375C484.531 37.1302 484.896 34.1615 485.625 31.5312C486.354 28.875 487.409 26.6224 488.789 24.7734C490.169 22.8984 491.849 21.4661 493.828 20.4766C495.833 19.4609 498.099 18.9531 500.625 18.9531C502.995 18.9531 505.091 19.3307 506.914 20.0859C508.763 20.8151 510.365 21.8698 511.719 23.25C513.099 24.6042 514.219 26.2057 515.078 28.0547C515.964 29.8776 516.628 31.8958 517.07 34.1094V48.6797C516.732 50.6328 516.146 52.4688 515.312 54.1875C514.479 55.8802 513.372 57.3776 511.992 58.6797C510.612 59.9557 508.971 60.9583 507.07 61.6875C505.169 62.4167 502.995 62.7812 500.547 62.7812C498.047 62.7812 495.807 62.2604 493.828 61.2188C491.849 60.1771 490.169 58.7057 488.789 56.8047C487.409 54.9036 486.354 52.638 485.625 50.0078C484.896 47.3776 484.531 44.4609 484.531 41.2578ZM487.695 40.4375V41.2578C487.695 43.9401 487.956 46.4141 488.477 48.6797C489.023 50.9453 489.831 52.9115 490.898 54.5781C491.992 56.2448 493.372 57.5469 495.039 58.4844C496.706 59.4219 498.646 59.8906 500.859 59.8906C503.724 59.8906 506.133 59.3698 508.086 58.3281C510.039 57.2865 511.602 55.9062 512.773 54.1875C513.945 52.4688 514.766 50.5677 515.234 48.4844V34.6953C514.948 33.3672 514.505 31.9609 513.906 30.4766C513.307 28.9661 512.461 27.5599 511.367 26.2578C510.299 24.9557 508.919 23.901 507.227 23.0938C505.534 22.2604 503.438 21.8438 500.938 21.8438C498.698 21.8438 496.732 22.3125 495.039 23.25C493.372 24.1875 491.992 25.4896 490.898 27.1562C489.831 28.8229 489.023 30.7891 488.477 33.0547C487.956 35.3203 487.695 37.7812 487.695 40.4375Z" fill="white"/>
</g>
</g>
</svg>
